<svg id="Capa_1" data-name="Capa 1" xmlns="http://www.w3.org/2000/svg" viewBox="0 0 50 50"><defs><style>.cls-1{fill:#fff;}</style></defs><path class="cls-1" d="M19.66,36.88a7,7,0,0,0,2.83-1.26,6.83,6.83,0,0,0,1.77-2,7.29,7.29,0,0,0,1.12-4,6.63,6.63,0,0,0-1-3.67,5.53,5.53,0,0,0-2.89-2.21,6,6,0,0,0,1.91-1.43,5.6,5.6,0,0,0,1.16-3.69,6.36,6.36,0,0,0-1.15-3.83q-1.91-2.6-6.5-2.67H4.82V37.22H16.11A17.9,17.9,0,0,0,19.66,36.88ZM9.82,16.51h5.45a9.43,9.43,0,0,1,3,.39,2.24,2.24,0,0,1,1.35,2.31,2.36,2.36,0,0,1-1,2.2,5,5,0,0,1-2.65.62H9.82Zm0,16.35V26.18H16a6.11,6.11,0,0,1,2.5.43,2.67,2.67,0,0,1,1.6,2.68,3.15,3.15,0,0,1-1.65,3.13,5.8,5.8,0,0,1-2.53.44Z"/><path class="cls-1" d="M29.62,35.57a10.13,10.13,0,0,0,6.53,2.28,9,9,0,0,0,7-2.71,6,6,0,0,0,1.8-3.35H40a4,4,0,0,1-1,1.28,4.14,4.14,0,0,1-2.69.85,4.89,4.89,0,0,1-2.68-.7,4.45,4.45,0,0,1-1.93-3.91H45.17A23,23,0,0,0,45,25.63a9,9,0,0,0-1.47-3.83,7.5,7.5,0,0,0-3.21-2.74A10.49,10.49,0,0,0,36,18.19a8.94,8.94,0,0,0-6.63,2.57q-2.55,2.56-2.55,7.38C26.8,31.57,27.74,34,29.62,35.57Zm3.47-12.33a3.84,3.84,0,0,1,2.89-1,4.26,4.26,0,0,1,2.87,1,4,4,0,0,1,1.29,2.93H31.79A5.07,5.07,0,0,1,33.09,23.24Z"/><rect class="cls-1" x="30.22" y="13.59" width="10.89" height="2.53"/></svg>