<svg id="Capa_1" data-name="Capa 1" xmlns="http://www.w3.org/2000/svg" viewBox="0 0 50 50"><defs><style>.cls-1{fill:#fff;}</style></defs><path class="cls-1" d="M25,8.91c5.24,0,5.86,0,7.93.11a11,11,0,0,1,3.65.68,6.06,6.06,0,0,1,2.25,1.47,6.15,6.15,0,0,1,1.47,2.25A11,11,0,0,1,41,17.07c.09,2.07.11,2.69.11,7.93s0,5.86-.11,7.93a10.85,10.85,0,0,1-.68,3.64,6.53,6.53,0,0,1-3.72,3.73,11,11,0,0,1-3.65.68c-2.07.09-2.69.11-7.93.11s-5.86,0-7.93-.11a10.85,10.85,0,0,1-3.64-.68A6.51,6.51,0,0,1,9.7,36.57,10.85,10.85,0,0,1,9,32.93c-.09-2.07-.11-2.69-.11-7.93s0-5.86.11-7.93a11,11,0,0,1,.68-3.65A6.53,6.53,0,0,1,13.43,9.7,10.85,10.85,0,0,1,17.07,9c2.07-.09,2.69-.11,7.93-.11m0-3.54c-5.33,0-6,0-8.09.12a14.71,14.71,0,0,0-4.77.91A10.13,10.13,0,0,0,6.4,12.14a14.71,14.71,0,0,0-.91,4.77C5.4,19,5.37,19.67,5.37,25s0,6,.12,8.09a14.71,14.71,0,0,0,.91,4.77,10.13,10.13,0,0,0,5.74,5.74,14.71,14.71,0,0,0,4.77.91c2.09.09,2.76.12,8.09.12s6,0,8.09-.12a14.71,14.71,0,0,0,4.77-.91,10.13,10.13,0,0,0,5.74-5.74,14.71,14.71,0,0,0,.91-4.77c.09-2.09.12-2.76.12-8.09s0-6-.12-8.09a14.71,14.71,0,0,0-.91-4.77A10.13,10.13,0,0,0,37.86,6.4a14.71,14.71,0,0,0-4.77-.91C31,5.4,30.33,5.37,25,5.37"/><path class="cls-1" d="M25,14.92A10.08,10.08,0,1,0,35.08,25,10.08,10.08,0,0,0,25,14.92m0,16.62A6.54,6.54,0,1,1,31.54,25,6.54,6.54,0,0,1,25,31.54"/><path class="cls-1" d="M37.83,14.52a2.36,2.36,0,1,1-2.35-2.35,2.36,2.36,0,0,1,2.35,2.35"/></svg>