<svg id="Capa_1" data-name="Capa 1" xmlns="http://www.w3.org/2000/svg" viewBox="0 0 30 35.78"><path d="M41.06,36c2.48-2.42,3.74-5.8,3.74-10.06s-1.26-7.63-3.75-10S35,12.28,30.36,12.28H18.46V23.54H16.83V12.06h-2V47.84h5.69V29.29a17.57,17.57,0,0,1,13.68,7.93,19.57,19.57,0,0,1-3.81.36h-5.2v2h5.2a20.46,20.46,0,0,0,4.87-.54A17.41,17.41,0,0,1,37,46.83v1h5.72v-1a23.16,23.16,0,0,0-2.38-10.25C40.61,36.39,40.84,36.19,41.06,36ZM30.36,14.31c4.08,0,7.2,1,9.28,3s3.12,4.89,3.12,8.57-1,6.58-3.12,8.6l-.26.23A23.32,23.32,0,0,0,20.49,23.56V14.31ZM16.83,45.81V25.57h1.63V45.81Zm3.66-18.56V25.6A21.27,21.27,0,0,1,37.72,35.94a10.3,10.3,0,0,1-1.5.7A19.62,19.62,0,0,0,20.49,27.25ZM40.7,45.81H39.05a19.36,19.36,0,0,0-1.86-7.36,12.81,12.81,0,0,0,1.49-.71A21,21,0,0,1,40.7,45.81Z" transform="translate(-14.8 -12.06)"/></svg>